<?xml version="1.0" standalone="no"?><!DOCTYPE svg PUBLIC "-//W3C//DTD SVG 1.1//EN" "http://www.w3.org/Graphics/SVG/1.1/DTD/svg11.dtd"><svg t="1735130546028" class="icon" viewBox="0 0 1024 1024" version="1.1" xmlns="http://www.w3.org/2000/svg" p-id="9461" xmlns:xlink="http://www.w3.org/1999/xlink" width="200" height="200"><path d="M1024 512a510.317714 510.317714 0 0 1-141.970286 353.865143A510.537143 510.537143 0 0 1 513.462857 1024H510.537143A512 512 0 1 1 1024 512z" fill="#000000" p-id="9462"></path><path d="M512 621.714286c124.928 0 236.544 56.905143 310.345143 146.285714A401.481143 401.481143 0 0 1 512 914.285714a401.481143 401.481143 0 0 1-310.345143-146.285714A401.481143 401.481143 0 0 1 512 621.714286zM694.857143 365.714286a182.857143 182.857143 0 1 1-365.714286 0 182.857143 182.857143 0 0 1 365.714286 0z" fill="#FFFFFF" p-id="9463"></path></svg>