<?xml version="1.0" standalone="no"?><!DOCTYPE svg PUBLIC "-//W3C//DTD SVG 1.1//EN" "http://www.w3.org/Graphics/SVG/1.1/DTD/svg11.dtd"><svg t="1736074566120" class="icon" viewBox="0 0 1024 1024" version="1.1" xmlns="http://www.w3.org/2000/svg" p-id="19894" xmlns:xlink="http://www.w3.org/1999/xlink" width="200" height="200"><path d="M383.99928 800.00042a31.99994 31.99994 0 0 1 31.99994-31.99994h191.99964a31.99994 31.99994 0 0 1 0 63.99988h-191.99964a31.99994 31.99994 0 0 1-31.99994-31.99994zM191.99964 515.968953C191.99964 432.641109 271.039492 368.961228 353.919336 376.705214a1701.11681 1701.11681 0 0 0 316.159408 0C752.958588 368.961228 831.99844 432.641109 831.99844 515.968953v74.047861a59.711888 59.711888 0 0 1-48.959908 59.839888c-54.079899 9.407982-149.759719 22.143958-271.039492 22.143958-121.279773 0-216.959593-12.799976-271.039492-22.143958A59.711888 59.711888 0 0 1 191.99964 590.016814V515.968953z m290.687455-52.927901a15.99997 15.99997 0 0 0-13.887974 4.351992l-58.87989 57.599892a1585.085028 1585.085028 0 0 1-119.743775-11.711978 15.99997 15.99997 0 0 0-4.351992 31.67994c35.199934 4.863991 78.847852 9.535982 129.279758 12.351977a15.99997 15.99997 0 0 0 12.095977-4.543991l48.25591-47.103912 54.207898 109.439795a15.99997 15.99997 0 0 0 25.855951 3.967992l59.647889-62.079883a1618.300966 1618.300966 0 0 0 123.007769-12.031978 15.99997 15.99997 0 0 0-4.351992-31.67994c-34.431935 4.735991-77.247855 9.279983-126.719762 12.095977a15.99997 15.99997 0 0 0-10.62398 4.863991l-48.25591 50.239906-53.887899-108.799796a15.99997 15.99997 0 0 0-11.647978-8.639984z" fill="#fff" p-id="19895"></path><path d="M543.99898 119.425696a63.99988 63.99988 0 1 0-63.99988 0V192.00156h-127.99976A287.99946 287.99946 0 0 0 63.99988 480.00102V512.00096a63.99988 63.99988 0 0 0-63.99988 63.99988v127.99976a63.99988 63.99988 0 0 0 63.99988 63.99988v63.99988a127.99976 127.99976 0 0 0 127.99976 127.99976h639.9988a127.99976 127.99976 0 0 0 127.99976-127.99976v-63.99988a63.99988 63.99988 0 0 0 63.99988-63.99988V576.00084a63.99988 63.99988 0 0 0-63.99988-63.99988v-31.99994A287.99946 287.99946 0 0 0 671.99874 192.00156h-127.99976V119.425696zM895.99832 480.00102V832.00036a63.99988 63.99988 0 0 1-63.99988 63.99988H191.99964a63.99988 63.99988 0 0 1-63.99988-63.99988V480.00102A223.99958 223.99958 0 0 1 351.99934 256.00144h319.9994A223.99958 223.99958 0 0 1 895.99832 480.00102z" fill="#fff" p-id="19896"></path></svg>