<svg t="1733746943080" class="icon" viewBox="0 0 1024 1024" version="1.1" xmlns="http://www.w3.org/2000/svg" p-id="25090" width="200" height="200"><path d="M944 992H233.6c-102.4 0-185.6-83.2-185.6-185.6V217.6C48 115.2 131.2 32 233.6 32h710.4c9.6 0 22.4 0 32 3.2V992h-32zM320 96v371.2l80-60.8 73.6 51.2V96H320z m601.6 0H547.2v464l-137.6-92.8L268.8 576V96H220.8C169.6 96 112 166.4 112 217.6v515.2c19.2-35.2 73.6-44.8 124.8-44.8h684.8V96z m-9.6 646.4H214.4c-64 0-96 41.6-99.2 73.6v-12.8 22.4c0 51.2 67.2 102.4 118.4 102.4h678.4v-185.6z" fill="#FCBD3F" p-id="25091"></path><path d="M320 96v371.2l80-60.8 73.6 51.2V96z" fill="#FFF6D8" p-id="25092"></path><path d="M921.6 96H547.2v464l-137.6-92.8L268.8 576V96H220.8C169.6 96 112 166.4 112 217.6v515.2c19.2-35.2 73.6-44.8 124.8-44.8h684.8V96zM912 742.4H214.4c-64 0-96 41.6-99.2 73.6v-12.8 22.4c0 51.2 67.2 102.4 118.4 102.4h678.4v-185.6z" fill="#FFF6D8" p-id="25093"></path></svg>