<svg t="1733734812084" class="icon" viewBox="0 0 1024 1024" version="1.1" xmlns="http://www.w3.org/2000/svg" p-id="18436" width="200" height="200"><path d="M512 1024C229.241263 1024 0 794.758737 0 512S229.241263 0 512 0s512 229.241263 512 512-229.241263 512-512 512z m252.146526-230.4c18.405053 0 29.453474-14.713263 29.453474-29.453474 0 0 0-103.019789-77.285053-139.829894-44.166737-22.096842-3.098947-3.664842-61.978947-29.426527-55.188211-25.761684-69.901474-33.145263-69.901474-33.145263v-55.18821s22.096842-18.405053 29.426527-69.928421c14.713263 3.691789 18.405053-18.378105 18.405052-29.426527 3.691789-11.048421 7.356632-51.523368-7.356631-47.831579 3.664842-25.761684 3.664842-51.523368 3.664842-62.571789-3.664842-44.166737-55.781053-88.306526-129.347369-91.998316-62.598737 3.691789-125.736421 47.831579-129.401263 91.998316 0 11.048421 0 36.810105 3.664842 62.571789-14.713263-3.691789-7.356632 36.783158-7.356631 47.831579 0 11.048421 3.691789 33.118316 14.713263 29.426527 7.356632 51.523368 29.453474 69.928421 29.453474 69.928421v55.215157s-11.048421 7.356632-69.928421 33.118316c-55.188211 25.761684-14.120421 7.356632-61.978948 29.426527C204.8 661.126737 204.8 764.173474 204.8 764.173474c0 14.713263 11.048421 29.426526 29.453474 29.426526h529.893052z" fill="#979797" p-id="18437"></path></svg>